<svg version="1" xmlns="http://www.w3.org/2000/svg" width="682.667" height="682.667" viewBox="0 0 512.000000 512.000000"><path d="M0 256v256h512V0H0v256zm183.5-134c17.1 1.6 33.5 6.6 42.4 12.9 2.7 1.9 4.4 2.1 19.5 2.1H262v-4.5c0-3.2.5-4.7 1.8-5.4 4.7-2.5 28.1-4.6 50.2-4.5 20.9 0 23.2.2 32.1 2.6 9.3 2.5 17.6 6.1 23.1 9.9 2.5 1.8 5.3 1.9 51.2 1.9 26.7 0 48.6.3 48.6.7 0 .5-3.4 14-7.5 30.1l-7.4 29.2 7.9 78.7c4.4 43.3 7.9 78.8 7.7 78.8-.1.1-13.7-1.1-30.2-2.6-36.5-3.4-77-4.1-84.6-1.3-15.4 5.5-40.6 8-64.9 6.4-22.8-1.5-24.4-1.9-25-5.5-.4-2.4-1.1-3.1-3.4-3.3-2.6-.3-2.8-.1-2.2 2.1.3 1.4.8 3.2 1.2 4 .7 1.9-2.2 4.7-4.9 4.7-1.2 0-12.5.7-25 1.6-26.1 1.9-24.3 2.4-27.1-6.9l-1.7-5.7h-12.6c-10.8 0-12.8.2-13.9 1.7-1.1 1.6-3.8 1.8-26.2 2.1-24 .3-25.1.3-26.9-1.7l-1.8-2-39 3.3c-21.5 1.8-39.1 3.2-39.2 3.1-.1 0 2.6-35.9 6.2-79.7l6.4-79.7-7.4-28.6c-4.1-15.8-7.5-28.9-7.5-29.1 0-.2 18.2-.4 40.5-.4H121v-3.8c0-6.1 1.3-7 13.3-8.8 9.8-1.4 25.4-2.9 34.7-3.3 1.9 0 8.5.4 14.5.9z"/><path d="M148.5 126.1c-3.8.4-10.7 1.3-15.2 1.9l-8.3 1.2v85.7c0 47.2-.3 96.6-.7 109.9l-.6 24.2h22.4c12.3 0 23.5-.3 24.8-.7l2.4-.6-.7-37.3-.7-37.3 3.4-.6c5.5-1.1 6.9-.4 8.2 4 .7 2.2 6.5 21.5 13 43 6.4 21.4 11.9 39.2 12 39.3.4.4 48.8-2.8 49.2-3.2.2-.2-4.2-12.4-9.8-27.2-13.2-35.4-24.9-68.1-24.9-69.7 0-.7 1.2-2 2.8-2.9 9-5.4 18.8-18.7 22.8-31.2 3.8-11.5 4.5-31.9 1.6-45.6-6.2-30.2-25.5-47.6-58.2-52.5-10.1-1.6-31.9-1.8-43.5-.4zm34.2 37.1c6.5 1.6 13.3 8.4 16.3 16.3 2.9 7.5 4 28.5 2 37.4-3.2 14.3-11.9 23.4-23.9 24.8l-4.8.5-.6-19.7c-.4-10.9-.7-29-.7-40.2V162h3.6c1.9 0 5.6.5 8.1 1.2zM298 125.7c-6.6.5-28.1 3.3-30.8 4l-2.4.6.7 28.6c.3 15.7 1 65.4 1.5 110.4.4 45 1 82 1.2 82.3 2.5 2.4 48.4 3.5 62.6 1.5 34.9-5 54.3-19.1 60.9-44.3 2-7.7 2.2-25 .4-33.3-3.4-15.8-13.1-28.6-27.4-36.1l-7.9-4.1 5.4-2.7c11.2-5.6 18.7-14.1 23.6-26.3 2.4-6.3 2.6-7.9 2.6-20.8 0-12.3-.4-14.9-2.6-21.7-6-18.2-17.1-28.4-36.9-34.2-13.6-3.9-32.3-5.3-50.9-3.9zm29.1 34.9c11.6 3.5 17 13.1 17 30.3 0 10.5-1 15-5 21.2-3.6 5.8-11.2 9.8-20 10.6l-6.1.6V159h4.3c2.4 0 6.8.7 9.8 1.6zm-5.6 95.5c10.7 2 17.4 7 21.7 16.4 2 4.4 2.3 6.6 2.3 17.6 0 12-.1 12.8-3 18.4-3.9 7.6-9.3 11.2-18.5 12.3-10.8 1.3-9.7 4.5-10.2-32.1-.2-17.7-.3-32.5 0-33 .4-.9.7-.9 7.7.4z"/></svg>